# Blender v2.90.1 OBJ File: 'mirrors.blend'
# www.blender.org
o Hex_Circle.001
v 0.000000 0.000000 0.000000
v -0.999999 0.000000 0.000000
v -0.499999 0.000000 0.866025
v 0.500000 0.000000 0.866025
v 0.999999 0.000000 -0.000000
v 0.499999 0.000000 -0.866025
v -0.499999 0.000000 -0.866025
v -0.000000 0.000000 -0.000000
v -0.999999 0.000000 -0.000000
v -0.499999 0.000000 -0.866025
v 0.500000 0.000000 -0.866024
v 0.999999 -0.000000 0.000000
v 0.499999 -0.000000 0.866025
v -0.499999 -0.000000 0.866025
v 1.496998 0.000000 -0.830153
v 0.496999 0.000000 -0.830153
v 0.996998 0.000000 -1.696178
v 1.996997 0.000000 -1.696178
v 2.496997 -0.000000 -0.830153
v 1.996997 -0.000000 0.035871
v 0.996998 -0.000000 0.035871
v 1.456171 0.000000 0.816544
v 0.456172 0.000000 0.816544
v 0.956171 0.000000 -0.049480
v 1.956170 0.000000 -0.049480
v 2.456170 -0.000000 0.816544
v 1.956170 -0.000000 1.682569
v 0.956171 -0.000000 1.682569
vt 0.500000 0.500000
vt 0.500000 1.000000
vt 0.066987 0.750000
vt 0.066987 0.250000
vt 0.500000 0.000000
vt 0.933013 0.250000
vt 0.933013 0.750000
vt 0.500000 0.500000
vt 0.500000 1.000000
vt 0.066987 0.750000
vt 0.066987 0.250000
vt 0.500000 0.000000
vt 0.933013 0.250000
vt 0.933013 0.750000
vt 0.500000 0.500000
vt 0.500000 1.000000
vt 0.066987 0.750000
vt 0.066987 0.250000
vt 0.500000 0.000000
vt 0.933013 0.250000
vt 0.933013 0.750000
vt 0.500000 0.500000
vt 0.500000 1.000000
vt 0.066987 0.750000
vt 0.066987 0.250000
vt 0.500000 0.000000
vt 0.933013 0.250000
vt 0.933013 0.750000
vn 0.0000 1.0000 0.0000
vn -0.0000 -1.0000 -0.0000
s off
f 1/1/1 2/2/1 3/3/1
f 1/1/1 3/3/1 4/4/1
f 1/1/1 4/4/1 5/5/1
f 1/1/1 5/5/1 6/6/1
f 1/1/1 6/6/1 7/7/1
f 1/1/1 7/7/1 2/2/1
f 8/8/2 9/9/2 10/10/2
f 8/8/2 10/10/2 11/11/2
f 8/8/2 11/11/2 12/12/2
f 8/8/2 12/12/2 13/13/2
f 8/8/2 13/13/2 14/14/2
f 8/8/2 14/14/2 9/9/2
f 15/15/2 16/16/2 17/17/2
f 15/15/2 17/17/2 18/18/2
f 15/15/2 18/18/2 19/19/2
f 15/15/2 19/19/2 20/20/2
f 15/15/2 20/20/2 21/21/2
f 15/15/2 21/21/2 16/16/2
f 22/22/2 23/23/2 24/24/2
f 22/22/2 24/24/2 25/25/2
f 22/22/2 25/25/2 26/26/2
f 22/22/2 26/26/2 27/27/2
f 22/22/2 27/27/2 28/28/2
f 22/22/2 28/28/2 23/23/2
