# Blender v2.90.1 OBJ File: 'mirrors.blend'
# www.blender.org
mtllib fan.mtl
o Hex_fan_Circle.004
v 0.000000 0.000000 0.000001
v -86.602547 8.682408 -39.392307
v -86.602539 -8.682409 39.392315
v 0.000001 0.000000 0.000000
v -77.416000 8.682408 55.303852
v -9.186515 -8.682409 94.696152
v 0.000001 0.000000 -0.000000
v 9.186545 8.682408 94.696159
v 77.416023 -8.682409 55.303829
v -0.000000 0.000000 -0.000001
v 86.602554 8.682408 39.392288
v 86.602531 -8.682409 -39.392334
v -0.000001 0.000000 -0.000000
v 77.416000 8.682408 -55.303871
v 9.186495 -8.682409 -94.696167
v -0.000001 0.000000 0.000000
v -9.186572 8.682408 -94.696152
v -77.416039 -8.682409 -55.303810
v 0.000000 -0.000001 -0.000007
v -86.602547 -8.682413 39.392300
v -86.602539 8.682414 -39.392323
v 0.000001 -0.000001 -0.000006
v -77.416000 -8.682404 -55.303852
v -9.186515 8.682417 -94.696152
v 0.000001 -0.000001 -0.000006
v 9.186545 -8.682401 -94.696159
v 77.416023 8.682414 -55.303829
v -0.000000 -0.000001 -0.000005
v 86.602554 -8.682404 -39.392296
v 86.602531 8.682405 39.392326
v -0.000001 -0.000001 -0.000006
v 77.416000 -8.682413 55.303871
v 9.186495 8.682403 94.696167
v -0.000001 -0.000001 -0.000006
v -9.186572 -8.682416 94.696152
v -77.416039 8.682405 55.303810
vt 0.500000 0.500000
vt 0.066987 0.750000
vt 0.066987 0.250000
vt 0.500000 0.500000
vt 0.066987 0.750000
vt 0.066987 0.250000
vt 0.500000 0.500000
vt 0.066987 0.750000
vt 0.066987 0.250000
vt 0.500000 0.500000
vt 0.066987 0.750000
vt 0.066987 0.250000
vt 0.500000 0.500000
vt 0.066987 0.750000
vt 0.066987 0.250000
vt 0.500000 0.500000
vt 0.066987 0.750000
vt 0.066987 0.250000
vt 0.500000 0.500000
vt 0.066987 0.750000
vt 0.066987 0.250000
vt 0.500000 0.500000
vt 0.066987 0.750000
vt 0.066987 0.250000
vt 0.500000 0.500000
vt 0.066987 0.750000
vt 0.066987 0.250000
vt 0.500000 0.500000
vt 0.066987 0.750000
vt 0.066987 0.250000
vt 0.500000 0.500000
vt 0.066987 0.750000
vt 0.066987 0.250000
vt 0.500000 0.500000
vt 0.066987 0.750000
vt 0.066987 0.250000
vn 0.0000 0.9766 0.2152
vn 0.1864 0.9766 0.1076
vn 0.1864 0.9766 -0.1076
vn -0.0000 0.9766 -0.2152
vn -0.1864 0.9766 -0.1076
vn -0.1864 0.9766 0.1076
vn -0.0000 -0.9766 -0.2152
vn 0.1864 -0.9766 -0.1076
vn 0.1864 -0.9766 0.1076
vn -0.0000 -0.9766 0.2152
vn -0.1864 -0.9766 0.1076
vn -0.1864 -0.9766 -0.1076
usemtl None
s off
f 1/1/1 2/2/1 3/3/1
f 4/4/2 5/5/2 6/6/2
f 7/7/3 8/8/3 9/9/3
f 10/10/4 11/11/4 12/12/4
f 13/13/5 14/14/5 15/15/5
f 16/16/6 17/17/6 18/18/6
f 19/19/7 20/20/7 21/21/7
f 22/22/8 23/23/8 24/24/8
f 25/25/9 26/26/9 27/27/9
f 28/28/10 29/29/10 30/30/10
f 31/31/11 32/32/11 33/33/11
f 34/34/12 35/35/12 36/36/12
